<?xml version="1.0" encoding="UTF-8" standalone="no"?>
<!DOCTYPE svg PUBLIC "-//W3C//DTD SVG 1.1//EN"
 "http://www.w3.org/Graphics/SVG/1.1/DTD/svg11.dtd">
<!-- Generated by graphviz version 8.0.5 (20230430.1635)
 -->
<!-- Title: G Pages: 1 -->
<svg width="127pt" height="373pt"
 viewBox="0.00 0.00 126.76 373.00" xmlns="http://www.w3.org/2000/svg" xmlns:xlink="http://www.w3.org/1999/xlink">
<g id="graph0" class="graph" transform="scale(1 1) rotate(0) translate(4 369)">
<title>G</title>
<polygon fill="white" stroke="none" points="-4,4 -4,-369 122.76,-369 122.76,4 -4,4"/>
<!-- hello -->
<g id="node1" class="node">
<title>hello</title>
<ellipse fill="none" stroke="black" cx="29.34" cy="-164" rx="29.34" ry="18"/>
<text text-anchor="middle" x="29.34" y="-158.95" font-family="Times,serif" font-size="14.00">hello</text>
</g>
<!-- world -->
<g id="node3" class="node">
<title>world</title>
<ellipse fill="none" stroke="black" cx="86.34" cy="-18" rx="32.41" ry="18"/>
<text text-anchor="middle" x="86.34" y="-12.95" font-family="Times,serif" font-size="14.00">world</text>
</g>
<!-- hello&#45;&#45;world -->
<g id="edge1" class="edge">
<title>hello&#45;&#45;world</title>
<path fill="none" stroke="green" stroke-width="10" d="M35.99,-146.2C46.98,-118.45 68.78,-63.37 79.74,-35.69"/>
</g>
<!-- hi -->
<g id="node2" class="node">
<title>hi</title>
<ellipse fill="none" stroke="black" cx="86.34" cy="-347" rx="27" ry="18"/>
<text text-anchor="middle" x="86.34" y="-341.95" font-family="Times,serif" font-size="14.00">hi</text>
</g>
<!-- hi&#45;&#45;world -->
<g id="edge2" class="edge">
<title>hi&#45;&#45;world</title>
<path fill="none" stroke="red" stroke-width="10" d="M86.34,-328.75C86.34,-310.63 86.34,-281.31 86.34,-256 86.34,-256 86.34,-256 86.34,-109 86.34,-83.69 86.34,-54.37 86.34,-36.25"/>
</g>
</g>
</svg>
