<?xml version="1.0" encoding="UTF-8" standalone="no"?>
<!DOCTYPE svg PUBLIC "-//W3C//DTD SVG 1.1//EN"
 "http://www.w3.org/Graphics/SVG/1.1/DTD/svg11.dtd">
<!-- Generated by graphviz version 8.0.5 (20230430.1635)
 -->
<!-- Pages: 1 -->
<svg width="138pt" height="373pt"
 viewBox="0.00 0.00 137.76 373.00" xmlns="http://www.w3.org/2000/svg" xmlns:xlink="http://www.w3.org/1999/xlink">
<g id="graph0" class="graph" transform="scale(1 1) rotate(0) translate(4 369)">
<polygon fill="white" stroke="none" points="-4,4 -4,-369 133.76,-369 133.76,4 -4,4"/>
<!-- hello -->
<g id="node1" class="node">
<title>hello</title>
<ellipse fill="none" stroke="black" cx="29.34" cy="-164" rx="29.34" ry="18"/>
<text text-anchor="middle" x="29.34" y="-158.95" font-family="Times,serif" font-size="14.00">hello</text>
</g>
<!-- world -->
<g id="node2" class="node">
<title>world</title>
<ellipse fill="none" stroke="black" cx="97.34" cy="-18" rx="32.41" ry="18"/>
<text text-anchor="middle" x="97.34" y="-12.95" font-family="Times,serif" font-size="14.00">world</text>
</g>
<!-- hello&#45;&#45;world -->
<g id="edge1" class="edge">
<title>hello:e&#45;&#45;world:w</title>
<path fill="none" stroke="green" stroke-width="10" d="M60.34,-164C125.25,-164 -1.56,-18 63.34,-18"/>
</g>
<!-- hi -->
<g id="node3" class="node">
<title>hi</title>
<ellipse fill="none" stroke="black" cx="97.34" cy="-347" rx="27" ry="18"/>
<text text-anchor="middle" x="97.34" y="-341.95" font-family="Times,serif" font-size="14.00">hi</text>
</g>
<!-- hi&#45;&#45;world -->
<g id="edge2" class="edge">
<title>hi&#45;&#45;world</title>
<path fill="none" stroke="red" stroke-width="10" d="M97.34,-328.75C97.34,-310.63 97.34,-281.31 97.34,-256 97.34,-256 97.34,-256 97.34,-109 97.34,-83.69 97.34,-54.37 97.34,-36.25"/>
</g>
</g>
</svg>
