<?xml version="1.0" encoding="UTF-8" standalone="no"?>
<!DOCTYPE svg PUBLIC "-//W3C//DTD SVG 1.1//EN"
 "http://www.w3.org/Graphics/SVG/1.1/DTD/svg11.dtd">
<!-- Generated by graphviz version 8.0.5 (20230430.1635)
 -->
<!-- Title: G Pages: 1 -->
<svg width="407pt" height="383pt"
 viewBox="0.00 0.00 407.00 383.00" xmlns="http://www.w3.org/2000/svg" xmlns:xlink="http://www.w3.org/1999/xlink">
<g id="graph0" class="graph" transform="scale(1 1) rotate(0) translate(4 379)">
<title>G</title>
<polygon fill="white" stroke="none" points="-4,4 -4,-379 403,-379 403,4 -4,4"/>
<!-- Drone:0 -->
<g id="node1" class="node">
<title>Drone:0</title>
<ellipse fill="none" stroke="black" cx="95.81" cy="-281.79" rx="41.12" ry="18"/>
<text text-anchor="middle" x="95.81" y="-276.74" font-family="Times,serif" font-size="14.00">Drone:0</text>
</g>
<!-- Drone:3 -->
<g id="node4" class="node">
<title>Drone:3</title>
<ellipse fill="none" stroke="black" cx="219.58" cy="-357.38" rx="41.12" ry="18"/>
<text text-anchor="middle" x="219.58" y="-352.33" font-family="Times,serif" font-size="14.00">Drone:3</text>
</g>
<!-- Drone:0&#45;&#45;Drone:3 -->
<g id="edge1" class="edge">
<title>Drone:0&#45;&#45;Drone:3</title>
<path fill="none" stroke="black" d="M120.26,-296.72C141.96,-309.98 173.49,-329.23 195.18,-342.48"/>
</g>
<!-- Drone:4 -->
<g id="node5" class="node">
<title>Drone:4</title>
<ellipse fill="none" stroke="black" cx="251.25" cy="-293.47" rx="41.12" ry="18"/>
<text text-anchor="middle" x="251.25" y="-288.42" font-family="Times,serif" font-size="14.00">Drone:4</text>
</g>
<!-- Drone:0&#45;&#45;Drone:4 -->
<g id="edge2" class="edge">
<title>Drone:0&#45;&#45;Drone:4</title>
<path fill="none" stroke="black" d="M136.65,-284.86C159.41,-286.57 187.66,-288.69 210.41,-290.4"/>
</g>
<!-- Drone:5 -->
<g id="node6" class="node">
<title>Drone:5</title>
<ellipse fill="none" stroke="black" cx="40.64" cy="-188.36" rx="41.12" ry="18"/>
<text text-anchor="middle" x="40.64" y="-183.31" font-family="Times,serif" font-size="14.00">Drone:5</text>
</g>
<!-- Drone:0&#45;&#45;Drone:5 -->
<g id="edge3" class="edge">
<title>Drone:0&#45;&#45;Drone:5</title>
<path fill="none" stroke="black" d="M85.43,-264.22C75.63,-247.62 61.01,-222.85 51.16,-206.17"/>
</g>
<!-- Drone:6 -->
<g id="node7" class="node">
<title>Drone:6</title>
<ellipse fill="none" stroke="black" cx="114.72" cy="-105.94" rx="41.12" ry="18"/>
<text text-anchor="middle" x="114.72" y="-100.89" font-family="Times,serif" font-size="14.00">Drone:6</text>
</g>
<!-- Drone:0&#45;&#45;Drone:6 -->
<g id="edge4" class="edge">
<title>Drone:0&#45;&#45;Drone:6</title>
<path fill="none" stroke="black" d="M97.76,-263.63C101.38,-229.94 109.11,-158.08 112.75,-124.26"/>
</g>
<!-- Drone:9 -->
<g id="node10" class="node">
<title>Drone:9</title>
<ellipse fill="none" stroke="black" cx="221.57" cy="-235.03" rx="41.12" ry="18"/>
<text text-anchor="middle" x="221.57" y="-229.98" font-family="Times,serif" font-size="14.00">Drone:9</text>
</g>
<!-- Drone:0&#45;&#45;Drone:9 -->
<g id="edge5" class="edge">
<title>Drone:0&#45;&#45;Drone:9</title>
<path fill="none" stroke="black" d="M127.54,-269.99C146.61,-262.9 170.78,-253.91 189.84,-246.82"/>
</g>
<!-- Drone:1 -->
<g id="node2" class="node">
<title>Drone:1</title>
<ellipse fill="none" stroke="black" cx="279.1" cy="-136.15" rx="41.12" ry="18"/>
<text text-anchor="middle" x="279.1" y="-131.1" font-family="Times,serif" font-size="14.00">Drone:1</text>
</g>
<!-- Drone:2 -->
<g id="node3" class="node">
<title>Drone:2</title>
<ellipse fill="none" stroke="black" cx="202.84" cy="-17.86" rx="41.12" ry="18"/>
<text text-anchor="middle" x="202.84" y="-12.81" font-family="Times,serif" font-size="14.00">Drone:2</text>
</g>
<!-- Drone:1&#45;&#45;Drone:2 -->
<g id="edge6" class="edge">
<title>Drone:1&#45;&#45;Drone:2</title>
<path fill="none" stroke="black" d="M267.68,-118.44C253.23,-96.01 228.47,-57.6 214.09,-35.3"/>
</g>
<!-- Drone:1&#45;&#45;Drone:6 -->
<g id="edge7" class="edge">
<title>Drone:1&#45;&#45;Drone:6</title>
<path fill="none" stroke="black" d="M240.98,-129.14C214.51,-124.28 179.4,-117.82 152.92,-112.96"/>
</g>
<!-- Drone:7 -->
<g id="node8" class="node">
<title>Drone:7</title>
<ellipse fill="none" stroke="black" cx="357.45" cy="-279.77" rx="41.12" ry="18"/>
<text text-anchor="middle" x="357.45" y="-274.72" font-family="Times,serif" font-size="14.00">Drone:7</text>
</g>
<!-- Drone:1&#45;&#45;Drone:7 -->
<g id="edge8" class="edge">
<title>Drone:1&#45;&#45;Drone:7</title>
<path fill="none" stroke="black" d="M288.87,-154.05C303.96,-181.72 332.79,-234.56 347.81,-262.1"/>
</g>
<!-- Drone:8 -->
<g id="node9" class="node">
<title>Drone:8</title>
<ellipse fill="none" stroke="black" cx="158.1" cy="-180.12" rx="41.12" ry="18"/>
<text text-anchor="middle" x="158.1" y="-175.07" font-family="Times,serif" font-size="14.00">Drone:8</text>
</g>
<!-- Drone:1&#45;&#45;Drone:8 -->
<g id="edge9" class="edge">
<title>Drone:1&#45;&#45;Drone:8</title>
<path fill="none" stroke="black" d="M246.99,-147.82C229.35,-154.23 207.54,-162.15 189.94,-168.55"/>
</g>
<!-- Drone:1&#45;&#45;Drone:9 -->
<g id="edge10" class="edge">
<title>Drone:1&#45;&#45;Drone:9</title>
<path fill="none" stroke="black" d="M268.82,-153.83C258.41,-171.71 242.4,-199.22 231.96,-217.17"/>
</g>
<!-- Drone:2&#45;&#45;Drone:6 -->
<g id="edge11" class="edge">
<title>Drone:2&#45;&#45;Drone:6</title>
<path fill="none" stroke="black" d="M186.27,-34.42C170.61,-50.07 147.25,-73.42 131.52,-89.14"/>
</g>
<!-- Drone:2&#45;&#45;Drone:8 -->
<g id="edge12" class="edge">
<title>Drone:2&#45;&#45;Drone:8</title>
<path fill="none" stroke="black" d="M197.8,-36.15C189.16,-67.48 171.64,-131.02 163.06,-162.13"/>
</g>
<!-- Drone:3&#45;&#45;Drone:7 -->
<g id="edge13" class="edge">
<title>Drone:3&#45;&#45;Drone:7</title>
<path fill="none" stroke="black" d="M245.19,-342.96C269.95,-329.02 307.26,-308.02 331.98,-294.11"/>
</g>
<!-- Drone:3&#45;&#45;Drone:8 -->
<g id="edge14" class="edge">
<title>Drone:3&#45;&#45;Drone:8</title>
<path fill="none" stroke="black" d="M213.35,-339.41C201.56,-305.43 176.15,-232.15 164.35,-198.14"/>
</g>
<!-- Drone:4&#45;&#45;Drone:7 -->
<g id="edge15" class="edge">
<title>Drone:4&#45;&#45;Drone:7</title>
<path fill="none" stroke="black" d="M291.1,-288.33C299.81,-287.21 309.03,-286.02 317.73,-284.9"/>
</g>
<!-- Drone:4&#45;&#45;Drone:8 -->
<g id="edge16" class="edge">
<title>Drone:4&#45;&#45;Drone:8</title>
<path fill="none" stroke="black" d="M237.1,-276.26C219.49,-254.83 189.61,-218.45 172.08,-197.12"/>
</g>
<!-- Drone:4&#45;&#45;Drone:9 -->
<g id="edge17" class="edge">
<title>Drone:4&#45;&#45;Drone:9</title>
<path fill="none" stroke="black" d="M242.19,-275.62C238.5,-268.37 234.26,-260.01 230.58,-252.77"/>
</g>
<!-- Drone:5&#45;&#45;Drone:6 -->
<g id="edge18" class="edge">
<title>Drone:5&#45;&#45;Drone:6</title>
<path fill="none" stroke="black" d="M55.99,-171.28C68.7,-157.13 86.68,-137.13 99.39,-122.99"/>
</g>
<!-- Drone:5&#45;&#45;Drone:8 -->
<g id="edge19" class="edge">
<title>Drone:5&#45;&#45;Drone:8</title>
<path fill="none" stroke="black" d="M81.72,-185.48C93.23,-184.67 105.74,-183.79 117.24,-182.98"/>
</g>
<!-- Drone:5&#45;&#45;Drone:9 -->
<g id="edge20" class="edge">
<title>Drone:5&#45;&#45;Drone:9</title>
<path fill="none" stroke="black" d="M76.39,-197.58C108,-205.73 153.9,-217.57 185.59,-225.74"/>
</g>
<!-- Drone:7&#45;&#45;Drone:9 -->
<g id="edge21" class="edge">
<title>Drone:7&#45;&#45;Drone:9</title>
<path fill="none" stroke="black" d="M324.21,-268.83C303.15,-261.89 276.02,-252.96 254.94,-246.01"/>
</g>
</g>
</svg>
